<svg width="420" height="420" viewBox="0 0 420 420" fill="none" xmlns="http://www.w3.org/2000/svg">
<rect width="420" height="420" rx="30" transform="matrix(-1 0 0 1 420 0)" fill="#2C2828"/>
<g filter="url(#filter0_f_3007_3)">
<path d="M376.151 155.056C383.366 176.875 386.213 199.902 384.53 222.821C382.846 245.741 376.664 268.104 366.338 288.635C356.011 309.165 341.742 327.461 324.345 342.477C306.948 357.493 286.764 368.935 264.944 376.151C243.125 383.366 220.098 386.213 197.179 384.53C174.259 382.846 151.896 376.664 131.365 366.338C110.835 356.011 92.5389 341.742 77.5229 324.345C62.5069 306.948 51.0645 286.764 43.8491 264.944L210 210L376.151 155.056Z" fill="#C9CDBD"/>
</g>
<g filter="url(#filter1_f_3007_3)">
<path d="M62.0875 116.475C79.8546 88.3759 105.258 65.9187 135.325 51.7325C165.391 37.5462 198.877 32.2178 231.862 36.3709C264.847 40.524 295.966 53.9869 321.577 75.1836C347.189 96.3803 366.233 124.434 376.48 156.061L210 210L62.0875 116.475Z" fill="#929292"/>
</g>
<g filter="url(#filter2_f_3007_3)">
<path d="M210 385C178.357 385 147.307 376.421 120.153 360.175C92.9992 343.929 70.7582 320.625 55.797 292.743C40.8358 264.861 33.7144 233.444 35.1905 201.836C36.6667 170.228 46.6853 139.611 64.1801 113.245L210 210V385Z" fill="#636363"/>
</g>
<g filter="url(#filter3_f_3007_3)">
<circle cx="210" cy="210" r="140" fill="#2F2F27"/>
<circle cx="210" cy="210" r="135" stroke="#EFEFEF" stroke-width="10"/>
</g>
<defs>
<filter id="filter0_f_3007_3" x="23.8491" y="135.056" width="381.151" height="269.944" filterUnits="userSpaceOnUse" color-interpolation-filters="sRGB">
<feFlood flood-opacity="0" result="BackgroundImageFix"/>
<feBlend mode="normal" in="SourceGraphic" in2="BackgroundImageFix" result="shape"/>
<feGaussianBlur stdDeviation="10" result="effect1_foregroundBlur_3007_3"/>
</filter>
<filter id="filter1_f_3007_3" x="42.0875" y="14.9999" width="354.392" height="215" filterUnits="userSpaceOnUse" color-interpolation-filters="sRGB">
<feFlood flood-opacity="0" result="BackgroundImageFix"/>
<feBlend mode="normal" in="SourceGraphic" in2="BackgroundImageFix" result="shape"/>
<feGaussianBlur stdDeviation="10" result="effect1_foregroundBlur_3007_3"/>
</filter>
<filter id="filter2_f_3007_3" x="15" y="93.2449" width="215" height="311.755" filterUnits="userSpaceOnUse" color-interpolation-filters="sRGB">
<feFlood flood-opacity="0" result="BackgroundImageFix"/>
<feBlend mode="normal" in="SourceGraphic" in2="BackgroundImageFix" result="shape"/>
<feGaussianBlur stdDeviation="10" result="effect1_foregroundBlur_3007_3"/>
</filter>
<filter id="filter3_f_3007_3" x="55" y="55" width="310" height="310" filterUnits="userSpaceOnUse" color-interpolation-filters="sRGB">
<feFlood flood-opacity="0" result="BackgroundImageFix"/>
<feBlend mode="normal" in="SourceGraphic" in2="BackgroundImageFix" result="shape"/>
<feGaussianBlur stdDeviation="7.5" result="effect1_foregroundBlur_3007_3"/>
</filter>
</defs>
</svg>
